<svg xmlns="http://www.w3.org/2000/svg" xmlns:xlink="http://www.w3.org/1999/xlink" preserveAspectRatio="xMidYMid" width="13" height="11" viewBox="0 0 13 11">
  <defs>
    <style>
      .cls-1 {
        fill: #fff;
        fill-rule: evenodd;
      }
    </style>
  </defs>
  <path d="M12.866,1.507 L7.866,10.212 C7.725,10.458 7.495,10.618 7.240,10.681 C7.170,10.758 7.097,10.833 7.000,10.887 C6.522,11.155 5.910,10.996 5.634,10.532 L0.634,2.124 C0.578,2.030 0.553,1.929 0.532,1.829 C0.220,1.672 0.000,1.357 0.000,0.984 C0.000,0.458 0.427,0.031 0.953,0.031 L11.047,0.031 C11.211,0.031 11.357,0.083 11.492,0.156 C11.793,-0.025 12.174,-0.055 12.500,0.134 C12.978,0.412 13.142,1.026 12.866,1.507 ZM6.636,8.333 L10.310,1.937 L2.832,1.937 L6.636,8.333 Z" class="cls-1"/>
</svg>
