<svg xmlns="http://www.w3.org/2000/svg" xmlns:xlink="http://www.w3.org/1999/xlink" preserveAspectRatio="xMidYMid" width="24" height="24" viewBox="0 0 24 24">
  <path fill="#ffffff" d="M21.999,19.000 L12.429,19.000 L6.000,24.000 L6.000,24.000 L4.000,24.000 L4.000,23.000 C4.000,23.000 4.000,23.000 4.000,23.000 L4.000,23.000 L4.000,19.000 L2.000,19.000 C0.895,19.000 -0.000,18.105 -0.000,17.000 L-0.000,2.000 C-0.000,0.896 0.895,-0.000 2.000,-0.000 L21.999,-0.000 C23.104,-0.000 24.000,0.896 24.000,2.000 L24.000,17.000 C24.000,18.105 23.104,19.000 21.999,19.000 ZM21.999,3.000 C21.999,2.448 21.552,2.000 21.000,2.000 L3.000,2.000 C2.448,2.000 2.000,2.448 2.000,3.000 L2.000,16.000 C2.000,16.552 2.448,17.000 3.000,17.000 L6.000,17.000 L6.000,19.000 L6.000,19.000 L6.000,21.500 L12.000,17.000 L15.000,17.000 L15.000,17.000 L21.000,17.000 C21.552,17.000 21.999,16.552 21.999,16.000 L21.999,3.000 ZM16.500,13.000 L6.500,13.000 C6.224,13.000 6.000,12.776 6.000,12.500 C6.000,12.224 6.224,12.000 6.500,12.000 L16.500,12.000 C16.776,12.000 17.000,12.224 17.000,12.500 C17.000,12.776 16.776,13.000 16.500,13.000 ZM6.500,9.000 L13.500,9.000 C13.776,9.000 14.000,9.224 14.000,9.500 C14.000,9.776 13.776,10.000 13.500,10.000 L6.500,10.000 C6.224,10.000 6.000,9.776 6.000,9.500 C6.000,9.224 6.224,9.000 6.500,9.000 ZM16.500,7.000 L6.500,7.000 C6.224,7.000 6.000,6.776 6.000,6.500 C6.000,6.224 6.224,6.000 6.500,6.000 L16.500,6.000 C16.776,6.000 17.000,6.224 17.000,6.500 C17.000,6.776 16.776,7.000 16.500,7.000 Z"/>
</svg>
