<svg xmlns="http://www.w3.org/2000/svg" xmlns:xlink="http://www.w3.org/1999/xlink" preserveAspectRatio="xMidYMid" width="85" height="80" viewBox="0 0 85 80">
  <defs>
    <style>
      .cls-1 {
        fill: #fff;
        fill-rule: evenodd;
      }
    </style>
  </defs>
  <path d="M83.314,12.374 C80.937,18.828 77.432,24.697 73.630,30.333 C70.980,34.262 69.703,38.579 68.555,43.020 C66.660,50.350 64.793,57.687 62.982,65.038 C62.084,68.684 61.361,72.373 60.512,76.032 C60.252,77.153 59.841,78.239 59.484,79.390 C58.833,79.649 58.374,79.831 57.950,79.999 C56.663,79.021 56.126,77.790 56.164,76.308 C56.242,73.250 57.169,70.368 58.012,67.470 C58.033,67.395 58.141,67.346 58.442,67.073 C58.442,67.677 58.491,68.093 58.433,68.493 C58.187,70.195 57.853,71.886 57.662,73.594 C57.516,74.905 57.394,76.254 58.192,77.769 C61.488,64.837 64.716,52.170 67.995,39.304 C66.410,39.909 65.248,40.612 64.604,42.098 C64.167,43.107 63.575,44.082 62.888,44.937 C61.875,46.196 61.309,46.323 59.600,46.048 C58.294,47.372 57.539,49.416 55.219,50.182 C54.682,49.856 53.962,49.419 53.144,48.922 C50.782,51.819 49.458,55.639 46.008,57.749 C44.817,56.390 44.326,54.878 44.192,53.314 C43.734,47.936 43.395,42.527 44.496,37.199 C45.222,33.684 46.576,30.410 50.056,28.659 C50.664,28.353 51.348,28.111 52.018,28.040 C54.066,27.823 55.798,28.897 55.664,31.139 C55.564,32.805 55.333,34.462 55.159,36.123 C55.127,36.433 55.090,36.743 55.045,37.139 C55.312,37.139 55.493,37.181 55.646,37.133 C57.262,36.624 58.085,37.281 57.729,38.957 C57.452,40.262 57.007,41.544 56.512,42.786 C56.048,43.947 55.414,45.038 54.864,46.164 C54.322,47.276 54.403,47.602 55.525,48.640 C55.782,48.460 56.137,48.316 56.336,48.052 C57.004,47.168 57.607,46.233 58.255,45.333 C58.906,44.429 59.101,43.443 59.115,42.323 C59.142,40.007 60.034,37.986 61.596,36.296 C61.877,35.992 62.332,35.852 62.636,35.677 C63.411,36.161 63.303,36.698 63.085,37.244 C62.399,38.965 61.697,40.679 61.016,42.402 C60.760,43.051 60.503,43.719 61.264,44.479 C61.617,44.143 62.047,43.875 62.281,43.486 C63.070,42.175 63.824,40.839 64.513,39.473 C64.729,39.043 64.697,38.487 64.780,37.989 C65.085,36.158 65.954,34.728 67.609,33.768 C68.051,34.081 68.418,34.341 68.958,34.723 C69.224,34.194 69.565,33.714 69.718,33.180 C70.499,30.456 71.248,27.721 71.977,24.982 C72.670,22.382 73.327,19.773 73.992,17.165 C74.047,16.950 74.048,16.721 74.074,16.500 C71.107,15.975 65.731,20.790 66.188,23.621 C66.566,23.721 66.984,23.832 67.491,23.966 C66.900,24.850 66.204,25.146 65.279,24.748 C64.094,23.477 64.545,22.199 65.274,21.015 C67.064,18.107 69.721,16.362 72.945,15.456 C73.371,15.336 73.845,15.387 74.417,15.351 C74.871,13.757 75.242,12.127 75.801,10.566 C76.738,7.948 77.726,5.344 78.840,2.799 C79.213,1.947 79.957,1.203 80.671,0.572 C81.635,-0.278 82.583,-0.142 83.503,0.746 C84.575,1.780 84.955,3.118 85.000,4.531 C85.087,7.276 84.248,9.837 83.314,12.374 ZM52.664,29.757 C50.887,29.430 48.856,30.449 47.840,32.343 C46.582,34.686 45.620,37.183 45.520,39.865 C45.377,43.706 45.391,47.556 45.435,51.401 C45.450,52.663 45.730,53.934 46.556,55.156 C49.012,52.617 50.943,49.854 52.569,46.906 C53.026,46.078 52.937,44.834 52.343,43.700 C50.721,46.340 50.721,46.340 49.229,46.498 C49.350,45.926 49.361,45.472 49.538,45.099 C50.234,43.635 50.952,42.180 51.718,40.753 C53.187,38.016 54.013,35.097 54.299,32.007 C54.424,30.653 53.961,29.996 52.664,29.757 ZM56.097,39.575 C54.435,40.336 53.898,41.672 54.533,43.253 C55.558,42.243 55.912,41.020 56.097,39.575 ZM83.480,3.190 C83.305,2.630 82.676,2.055 82.114,1.820 C81.379,1.513 80.852,2.175 80.414,2.730 C80.243,2.947 80.118,3.201 79.985,3.446 C78.248,6.638 77.177,10.084 76.248,13.577 C75.842,15.100 75.571,16.659 75.183,18.187 C74.474,20.975 73.710,23.748 72.997,26.535 C72.772,27.412 72.634,28.312 72.456,29.202 C72.566,29.241 72.677,29.280 72.787,29.319 C73.006,29.039 73.242,28.772 73.441,28.478 C76.437,24.057 79.032,19.397 81.272,14.549 C82.496,11.898 83.568,9.148 83.805,6.188 C83.884,5.197 83.775,4.133 83.480,3.190 ZM35.344,31.817 C35.436,30.545 35.528,29.272 35.624,27.957 C34.477,27.128 33.648,27.395 32.686,28.499 C30.236,31.311 29.690,34.789 29.066,38.262 C28.909,39.131 28.727,39.996 28.597,40.869 C28.518,41.401 28.518,41.944 28.480,42.513 C30.156,42.821 31.385,40.626 33.144,41.928 C32.601,42.829 31.998,43.384 31.000,43.580 C28.767,44.018 28.239,44.682 27.779,46.958 C27.218,49.734 26.581,52.494 25.967,55.259 C25.062,59.334 24.230,63.428 23.210,67.473 C22.622,69.804 21.760,72.069 20.956,74.340 C19.688,77.920 15.242,79.913 11.572,79.566 C8.672,79.292 6.167,78.112 3.799,76.538 C3.275,76.189 2.842,75.669 2.441,75.167 C1.350,73.805 1.318,72.345 2.277,70.914 C2.937,69.927 3.703,69.013 4.422,68.067 C4.539,68.122 4.655,68.178 4.772,68.234 C4.595,68.688 4.458,69.165 4.232,69.593 C3.686,70.624 3.157,71.630 3.230,72.872 C3.280,73.731 3.544,74.469 4.221,74.925 C7.107,76.864 10.188,78.289 13.769,77.943 C14.550,77.867 15.300,77.409 16.052,77.096 C16.302,76.992 16.493,76.706 16.744,76.647 C18.655,76.199 19.240,74.555 19.846,73.030 C22.329,66.783 23.566,60.198 24.873,53.634 C25.317,51.402 25.791,49.175 26.239,46.943 C26.327,46.504 26.357,46.054 26.449,45.340 C25.211,45.745 24.177,46.054 23.165,46.422 C20.783,47.288 18.387,48.123 16.041,49.080 C11.315,51.008 6.894,53.459 3.155,57.036 C2.107,58.039 1.757,59.263 1.652,60.772 C3.537,61.841 5.424,60.796 7.339,61.000 C7.153,61.143 6.984,61.369 6.776,61.415 C5.474,61.704 4.166,61.973 2.853,62.209 C1.766,62.405 0.978,61.880 0.396,61.009 C-0.147,60.195 -0.117,59.361 0.379,58.517 C1.732,56.213 3.782,54.655 5.890,53.130 C11.436,49.118 17.746,46.795 24.126,44.610 C24.988,44.314 25.815,43.913 26.642,43.568 C27.066,41.355 27.487,39.265 27.863,37.167 C28.332,34.543 28.912,31.952 30.466,29.733 C31.549,28.188 32.593,26.580 34.519,25.901 C36.068,25.354 36.965,25.953 36.921,27.596 C36.875,29.331 36.345,31.106 35.344,31.817 ZM35.501,65.294 C35.501,66.425 35.501,67.430 35.501,68.673 C34.835,68.428 34.405,68.269 34.028,68.131 C33.917,66.392 34.392,65.527 35.501,65.294 ZM81.201,33.707 C81.738,33.274 82.306,32.874 82.889,32.506 C83.124,32.358 83.436,32.335 83.713,32.255 C83.789,32.358 83.864,32.460 83.940,32.563 C83.247,33.310 82.554,34.056 81.861,34.803 C80.303,36.482 78.433,37.929 77.825,40.318 C77.779,40.495 77.715,40.678 77.614,40.828 C77.516,40.977 77.374,41.107 77.225,41.207 C77.120,41.278 76.973,41.287 76.736,41.354 C76.011,40.244 76.444,39.310 76.968,38.428 C78.068,36.576 79.538,35.048 81.201,33.707 Z" class="cls-1"/>
</svg>
