<svg xmlns="http://www.w3.org/2000/svg" xmlns:xlink="http://www.w3.org/1999/xlink" preserveAspectRatio="xMidYMid" width="61" height="12" viewBox="0 0 61 12">
  <path fill="#f06060" d="M60.217,1.433 C45.718,2.825 31.217,4.217 16.717,5.609 C13.226,5.944 8.806,6.200 6.391,5.310 C7.803,4.196 11.676,3.654 15.204,3.216 C28.324,1.587 42.033,-0.069 56.183,0.335 C58.234,0.393 60.965,0.830 60.217,1.433 ZM50.155,5.670 C52.206,5.728 54.936,6.165 54.188,6.767 C39.688,8.160 25.188,9.552 10.688,10.943 C7.198,11.278 2.777,11.535 0.362,10.645 C1.774,9.531 5.647,8.988 9.175,8.551 C22.295,6.922 36.004,5.265 50.155,5.670 Z" class="cls-1"/>
</svg>
